<?xml version="1.0" encoding="UTF-8" standalone="no"?>
<!DOCTYPE svg PUBLIC "-//W3C//DTD SVG 1.1//EN"
 "http://www.w3.org/Graphics/SVG/1.1/DTD/svg11.dtd">
<!-- Generated by graphviz version 2.40.1 (20161225.0304)
 -->
<!-- Title: G Pages: 1 -->
<svg width="525pt" height="308pt"
 viewBox="0.00 0.00 524.54 308.00" xmlns="http://www.w3.org/2000/svg" xmlns:xlink="http://www.w3.org/1999/xlink">
<g id="graph0" class="graph" transform="scale(1 1) rotate(0) translate(4 304)">
<title>G</title>
<polygon fill="#ffffff" stroke="transparent" points="-4,4 -4,-304 520.5421,-304 520.5421,4 -4,4"/>
<g id="clust1" class="cluster">
<title>cluster_0</title>
<polygon fill="#d3d3d3" stroke="#d3d3d3" points="126.1956,-8 126.1956,-292 508.5421,-292 508.5421,-8 126.1956,-8"/>
<text text-anchor="middle" x="317.3689" y="-276.8" font-family="Times,serif" font-size="14.00" fill="#000000">grpcb.in</text>
</g>
<g id="clust2" class="cluster">
<title>cluster_1</title>
<polygon fill="#ffffff" stroke="#ffffff" points="134.1956,-16 134.1956,-262 366.7236,-262 366.7236,-16 134.1956,-16"/>
<text text-anchor="middle" x="250.4596" y="-246.8" font-family="Times,serif" font-size="14.00" fill="#000000">listeners</text>
</g>
<g id="clust3" class="cluster">
<title>cluster_2</title>
<polygon fill="#ffffff" stroke="#ffffff" points="386.7236,-76 386.7236,-258 500.5421,-258 500.5421,-76 386.7236,-76"/>
<text text-anchor="middle" x="443.6328" y="-242.8" font-family="Times,serif" font-size="14.00" fill="#000000">services</text>
</g>
<!-- 9000 -->
<g id="node1" class="node">
<title>9000</title>
<ellipse fill="#d3d3d3" stroke="#d3d3d3" cx="250.4596" cy="-207" rx="82.0273" ry="25.4118"/>
<text text-anchor="middle" x="250.4596" y="-209.8" font-family="Times,serif" font-size="14.00" fill="#000000">gRPC over HTTP</text>
<text text-anchor="middle" x="250.4596" y="-195.8" font-family="Times,serif" font-size="14.00" fill="#000000">port=9000</text>
</g>
<!-- hellosvc -->
<g id="node4" class="node">
<title>hellosvc</title>
<ellipse fill="#d3d3d3" stroke="#d3d3d3" cx="443.6328" cy="-102" rx="39.6558" ry="18"/>
<text text-anchor="middle" x="443.6328" y="-97.8" font-family="Times,serif" font-size="14.00" fill="#000000">hellosvc</text>
</g>
<!-- 9000&#45;&#45;hellosvc -->
<g id="edge1" class="edge">
<title>9000&#45;&#45;hellosvc</title>
<path fill="none" stroke="#000000" d="M323.503,-195.1832C339.0499,-190.0294 354.4561,-182.6283 366.7236,-172 382.6536,-158.1985 371.8768,-143.9606 386.7236,-129 393.5793,-122.0917 402.5465,-116.7235 411.3284,-112.6594"/>
</g>
<!-- addsvc -->
<g id="node5" class="node">
<title>addsvc</title>
<ellipse fill="#d3d3d3" stroke="#d3d3d3" cx="443.6328" cy="-210" rx="34.8285" ry="18"/>
<text text-anchor="middle" x="443.6328" y="-205.8" font-family="Times,serif" font-size="14.00" fill="#000000">addsvc</text>
</g>
<!-- 9000&#45;&#45;addsvc -->
<g id="edge2" class="edge">
<title>9000&#45;&#45;addsvc</title>
<path fill="none" stroke="#000000" d="M332.6626,-208.2766C359.3618,-208.6913 387.5609,-209.1292 408.8516,-209.4598"/>
</g>
<!-- grpcbinsvc -->
<g id="node6" class="node">
<title>grpcbinsvc</title>
<ellipse fill="#d3d3d3" stroke="#d3d3d3" cx="443.6328" cy="-156" rx="48.8187" ry="18"/>
<text text-anchor="middle" x="443.6328" y="-151.8" font-family="Times,serif" font-size="14.00" fill="#000000">grpcbinsvc</text>
</g>
<!-- 9000&#45;&#45;grpcbinsvc -->
<g id="edge5" class="edge">
<title>9000&#45;&#45;grpcbinsvc</title>
<path fill="none" stroke="#000000" d="M313.1774,-190.4418C342.9224,-182.5887 377.5743,-173.4402 403.686,-166.5464"/>
</g>
<!-- 443 -->
<g id="node2" class="node">
<title>443</title>
<ellipse fill="#d3d3d3" stroke="#d3d3d3" cx="250.4596" cy="-128" rx="108.0285" ry="35.2113"/>
<text text-anchor="middle" x="250.4596" y="-137.8" font-family="Times,serif" font-size="14.00" fill="#000000">https webserver +</text>
<text text-anchor="middle" x="250.4596" y="-123.8" font-family="Times,serif" font-size="14.00" fill="#000000">gRPC with TLS</text>
<text text-anchor="middle" x="250.4596" y="-109.8" font-family="Times,serif" font-size="14.00" fill="#000000">port=443 and port=9001</text>
</g>
<!-- 443&#45;&#45;hellosvc -->
<g id="edge3" class="edge">
<title>443&#45;&#45;hellosvc</title>
<path fill="none" stroke="#000000" d="M350.724,-114.505C370.2002,-111.8836 389.4767,-109.2891 405.3797,-107.1487"/>
</g>
<!-- 443&#45;&#45;addsvc -->
<g id="edge4" class="edge">
<title>443&#45;&#45;addsvc</title>
<path fill="none" stroke="#000000" d="M322.2196,-154.5534C337.0403,-160.3783 352.472,-166.6959 366.7236,-173 375.8122,-177.0203 377.7893,-178.6476 386.7236,-183 396.8497,-187.933 408.0399,-193.2672 417.7988,-197.8813"/>
</g>
<!-- 443&#45;&#45;grpcbinsvc -->
<g id="edge6" class="edge">
<title>443&#45;&#45;grpcbinsvc</title>
<path fill="none" stroke="#000000" d="M349.5927,-142.3691C366.4525,-144.8129 383.2087,-147.2417 397.8047,-149.3573"/>
</g>
<!-- 80 -->
<g id="node3" class="node">
<title>80</title>
<ellipse fill="#d3d3d3" stroke="#d3d3d3" cx="250.4596" cy="-49" rx="87.3685" ry="25.4118"/>
<text text-anchor="middle" x="250.4596" y="-51.8" font-family="Times,serif" font-size="14.00" fill="#000000">http webserver that</text>
<text text-anchor="middle" x="250.4596" y="-37.8" font-family="Times,serif" font-size="14.00" fill="#000000">redirect to https</text>
</g>
<!-- grpcclient -->
<g id="node7" class="node">
<title>grpcclient</title>
<ellipse fill="none" stroke="#000000" cx="53.0978" cy="-161" rx="53.1958" ry="18"/>
<text text-anchor="middle" x="53.0978" y="-156.8" font-family="Times,serif" font-size="14.00" fill="#000000">gRPC client</text>
</g>
<!-- grpcclient&#45;&#45;9000 -->
<g id="edge9" class="edge">
<title>grpcclient&#45;&#45;9000</title>
<path fill="none" stroke="#000000" d="M96.8988,-171.2089C122.6776,-177.2173 155.783,-184.9333 184.651,-191.6617"/>
</g>
<!-- grpcclient&#45;&#45;443 -->
<g id="edge10" class="edge">
<title>grpcclient&#45;&#45;443</title>
<path fill="none" stroke="#000000" d="M100.8736,-153.0116C116.9591,-150.322 135.5296,-147.2169 153.9965,-144.1292"/>
</g>
<!-- browser -->
<g id="node8" class="node">
<title>browser</title>
<ellipse fill="none" stroke="#000000" cx="53.0978" cy="-95" rx="38.6869" ry="18"/>
<text text-anchor="middle" x="53.0978" y="-90.8" font-family="Times,serif" font-size="14.00" fill="#000000">browser</text>
</g>
<!-- browser&#45;&#45;443 -->
<g id="edge7" class="edge">
<title>browser&#45;&#45;443</title>
<path fill="none" stroke="#000000" d="M89.7575,-101.1297C108.0395,-104.1866 131.0977,-108.042 153.9965,-111.8708"/>
</g>
<!-- browser&#45;&#45;80 -->
<g id="edge8" class="edge">
<title>browser&#45;&#45;80</title>
<path fill="none" stroke="#000000" d="M87.9278,-86.882C113.9333,-80.8208 150.3066,-72.3431 182.0518,-64.9441"/>
</g>
</g>
</svg>
